<svg width="32" height="32" viewBox="0 0 32 32" fill="none" xmlns="http://www.w3.org/2000/svg">
<path fill-rule="evenodd" clip-rule="evenodd" d="M19 5.97272V10.0496C18.9997 10.1979 18.9995 10.4093 19.0279 10.5908C19.0625 10.8127 19.1765 11.2411 19.6201 11.5015C20.0473 11.7523 20.4651 11.6591 20.6637 11.5974C20.8368 11.5436 21.0267 11.4532 21.1683 11.3857L22.6667 10.6739L24.1651 11.3857C24.3067 11.4532 24.4965 11.5436 24.6696 11.5974C24.8683 11.6591 25.286 11.7523 25.7132 11.5015C26.1568 11.2411 26.2708 10.8127 26.3055 10.5908C26.3339 10.4093 26.3336 10.1979 26.3333 10.0496V4.04173C26.4837 4.03467 26.6315 4.02869 26.7757 4.02367C28.2048 3.97388 29.3331 5.14767 29.3331 6.57759V21.5248C29.3331 23.0061 28.1251 24.2047 26.6467 24.2971C25.354 24.378 23.8353 24.536 22.6664 24.8445C21.2245 25.2249 20.0141 26.2677 18.1699 26.7589C17.3351 26.9813 16.4039 27.1009 16 27.19V6.89849C16.4277 6.79373 17.8429 6.62856 18.2316 6.40367C18.4772 6.26147 18.7349 6.11643 19 5.97272ZM26.3035 17.0908C26.4375 17.6265 26.1116 18.1695 25.5759 18.3035L20.2425 19.6368C19.7068 19.7708 19.1639 19.4449 19.0299 18.9092C18.8959 18.3735 19.2217 17.8305 19.7575 17.6965L25.0908 16.3632C25.6265 16.2292 26.1695 16.5551 26.3035 17.0908Z" fill="#1C274D"/>
<path d="M24.3333 4.20135C23.5067 4.29908 22.6939 4.44212 21.9997 4.64992C21.6777 4.74633 21.3416 4.86855 21 5.00853V5.26669V9.25145L21.9991 8.77688L22.0108 8.77096C22.0761 8.73755 22.3515 8.59676 22.6667 8.59676C22.73 8.59676 22.7919 8.60245 22.8507 8.61183C23.0841 8.64905 23.2703 8.74427 23.3225 8.77096L23.3343 8.77687L24.3333 9.25145V4.8622V4.20135Z" fill="#1C274D"/>
<path opacity="0.5" d="M16 6.95194C15.5544 6.8673 14.5901 6.73686 13.7097 6.50059C11.9175 6.01967 10.7323 5.01906 9.33333 4.6499C8.15132 4.33799 6.61169 4.17984 5.30986 4.09983C3.8484 4.01 2.66666 5.19948 2.66666 6.66371V21.5248C2.66666 23.006 3.87473 24.2045 5.35314 24.2971C6.6457 24.3779 8.16438 24.536 9.33333 24.8444C9.98128 25.0155 10.9549 25.4193 11.8306 25.8123C13.17 26.4133 14.5663 26.8741 16 27.1901V6.95194Z" fill="#1C274D"/>
<path d="M5.69676 17.0911C5.8307 16.5552 6.37364 16.2295 6.90944 16.3635L12.2428 17.6968C12.7786 17.8307 13.1043 18.3736 12.9704 18.9095C12.8364 19.4452 12.2935 19.7709 11.7577 19.6371L6.42437 18.3037C5.88857 18.1697 5.56281 17.6268 5.69676 17.0911Z" fill="#1C274D"/>
<path d="M6.90944 11.0301C6.37364 10.8961 5.8307 11.2219 5.69676 11.7577C5.56281 12.2935 5.88857 12.8364 6.42437 12.9704L11.7577 14.3037C12.2935 14.4376 12.8364 14.1119 12.9704 13.5761C13.1043 13.0403 12.7786 12.4974 12.2428 12.3634L6.90944 11.0301Z" fill="#1C274D"/>
</svg>
